<?xml version="1.0" encoding="utf-8"?>
<!-- Generator: Adobe Illustrator 27.5.0, SVG Export Plug-In . SVG Version: 6.00 Build 0)  -->
<svg version="1.1" xmlns="http://www.w3.org/2000/svg" xmlns:xlink="http://www.w3.org/1999/xlink" x="0px" y="0px"
	 viewBox="0 0 500 500" style="enable-background:new 0 0 500 500;" xml:space="preserve">
<g id="Background_Simple">
	<g>
		<path style="fill:#C6FF00;" d="M422.41,180.037c2.266-23.453,7.7-45.665-1.899-68.232c-17.625-41.439-70.768-63.413-112.07-43.796
			C287.324,78.039,269.26,92.632,246,98c-62.779,14.487-159.676-62.715-193.854,27.173c-11.724,30.833-7.023,71.475,14.214,97.252
			c6.814,8.271,15.127,15.477,20.166,24.934c13.792,25.885-5.726,54.34-14.571,78.492c-20.9,57.069,57.907,88.647,100.674,94.468
			C243.369,429.947,301.688,348.996,372,382c49,23,92-33,83-89c-5.893-36.664-35.706-71.749-32.921-109.106
			C422.175,182.598,422.287,181.313,422.41,180.037z"/>
		<path style="opacity:0.7;fill:#FFFFFF;" d="M422.41,180.037c2.266-23.453,7.7-45.665-1.899-68.232
			c-17.625-41.439-70.768-63.413-112.07-43.796C287.324,78.039,269.26,92.632,246,98c-62.779,14.487-159.676-62.715-193.854,27.173
			c-11.724,30.833-7.023,71.475,14.214,97.252c6.814,8.271,15.127,15.477,20.166,24.934c13.792,25.885-5.726,54.34-14.571,78.492
			c-20.9,57.069,57.907,88.647,100.674,94.468C243.369,429.947,301.688,348.996,372,382c49,23,92-33,83-89
			c-5.893-36.664-35.706-71.749-32.921-109.106C422.175,182.598,422.287,181.313,422.41,180.037z"/>
	</g>
</g>
<g id="Plant">
	<g>
		
			<circle style="fill:#FFFFFF;stroke:#263238;stroke-linecap:round;stroke-linejoin:round;stroke-miterlimit:10;" cx="85.772" cy="160.728" r="34.529"/>
		
			<circle style="fill:#FFFFFF;stroke:#263238;stroke-linecap:round;stroke-linejoin:round;stroke-miterlimit:10;" cx="83.198" cy="157.296" r="34.529"/>
		
			<circle style="fill:#263238;stroke:#263238;stroke-linecap:round;stroke-linejoin:round;stroke-miterlimit:10;" cx="83.198" cy="157.296" r="31.097"/>
		<g>
			<path style="fill:#C6FF00;" d="M79.553,133.92c0,0-3.431-8.578-9.436-14.583c-6.005-6.005-30.454-9.865-30.454-9.865
				s5.147,4.718,10.723,12.439c5.576,7.721,24.02,25.307,24.02,25.307s-9.007-7.721-17.157-8.579
				c-8.15-0.858-28.738,3.431-30.025,3.431c-1.287,0,7.721,3.431,14.155,6.434s31.312,5.576,31.312,5.576
				s-10.723,3.003-18.015,5.576c-7.292,2.574-14.155,21.446-14.155,21.446s9.436-8.578,17.586-10.723
				c8.15-2.145,19.731-6.005,19.731-6.005s-7.292,8.15-9.007,13.726c-1.716,5.576-0.429,18.444-0.429,18.444
				s3.86-12.01,8.578-16.728c4.718-4.718,9.865-12.868,9.865-12.868s3.003,4.718,6.434,12.01c3.431,7.292,5.576,18.015,5.576,18.015
				s5.576-12.01,5.147-18.015s-6.863-16.728-6.863-16.728s4.289-3.003,10.723-0.429c6.434,2.574,17.586,13.297,17.586,13.297
				s-2.574-14.155-6.863-19.731c-4.289-5.576-22.733-7.292-22.733-7.292s10.294-6.005,16.728-7.292
				c6.434-1.287,15.013,1.716,15.013,1.716s-9.865-13.726-17.586-14.583c-7.721-0.858-19.302,11.152-19.302,11.152
				s2.574-12.868,3.431-17.157c0.858-4.289-0.858-15.012-0.858-15.012s-4.718,2.574-10.294,10.723
				C77.408,125.77,79.553,133.92,79.553,133.92z"/>
			<path style="opacity:0.5;" d="M79.553,133.92c0,0-3.431-8.578-9.436-14.583c-6.005-6.005-30.454-9.865-30.454-9.865
				s5.147,4.718,10.723,12.439c5.576,7.721,24.02,25.307,24.02,25.307s-9.007-7.721-17.157-8.579
				c-8.15-0.858-28.738,3.431-30.025,3.431c-1.287,0,7.721,3.431,14.155,6.434s31.312,5.576,31.312,5.576
				s-10.723,3.003-18.015,5.576c-7.292,2.574-14.155,21.446-14.155,21.446s9.436-8.578,17.586-10.723
				c8.15-2.145,19.731-6.005,19.731-6.005s-7.292,8.15-9.007,13.726c-1.716,5.576-0.429,18.444-0.429,18.444
				s3.86-12.01,8.578-16.728c4.718-4.718,9.865-12.868,9.865-12.868s3.003,4.718,6.434,12.01c3.431,7.292,5.576,18.015,5.576,18.015
				s5.576-12.01,5.147-18.015s-6.863-16.728-6.863-16.728s4.289-3.003,10.723-0.429c6.434,2.574,17.586,13.297,17.586,13.297
				s-2.574-14.155-6.863-19.731c-4.289-5.576-22.733-7.292-22.733-7.292s10.294-6.005,16.728-7.292
				c6.434-1.287,15.013,1.716,15.013,1.716s-9.865-13.726-17.586-14.583c-7.721-0.858-19.302,11.152-19.302,11.152
				s2.574-12.868,3.431-17.157c0.858-4.289-0.858-15.012-0.858-15.012s-4.718,2.574-10.294,10.723
				C77.408,125.77,79.553,133.92,79.553,133.92z"/>
			<path style="fill:none;stroke:#263238;stroke-width:0.5;stroke-linecap:round;stroke-linejoin:round;stroke-miterlimit:10;" d="
				M88.003,120.864c0.298-1.233,0.626-2.46,0.986-3.672"/>
			<path style="fill:none;stroke:#263238;stroke-width:0.5;stroke-linecap:round;stroke-linejoin:round;stroke-miterlimit:10;" d="
				M59.354,120.861c4.018,2.932,9.039,6.965,11.62,10.485c4.718,6.434,14.155,20.16,14.155,20.16s-0.633-13.603,2.177-27.497"/>
			<path style="fill:none;stroke:#263238;stroke-width:0.5;stroke-linecap:round;stroke-linejoin:round;stroke-miterlimit:10;" d="
				M53.388,116.763c0,0,1.255,0.795,3.124,2.083"/>
			<path style="fill:none;stroke:#263238;stroke-width:0.5;stroke-linecap:round;stroke-linejoin:round;stroke-miterlimit:10;" d="
				M85.129,151.506c0,0,16.299-16.299,23.162-17.586c6.863-1.287,12.868,3.86,12.868,3.86"/>
			<path style="fill:none;stroke:#263238;stroke-width:0.5;stroke-linecap:round;stroke-linejoin:round;stroke-miterlimit:10;" d="
				M55.995,165.137c-3.966,2.528-4.323,3.955-4.323,3.955"/>
			<path style="fill:none;stroke:#263238;stroke-width:0.5;stroke-linecap:round;stroke-linejoin:round;stroke-miterlimit:10;" d="
				M120.729,166.518c0,0-2.574-6.434-11.581-9.436c-9.007-3.003-23.162-3.431-23.162-3.431s-19.848,6.496-27.105,9.888"/>
			<path style="fill:none;stroke:#263238;stroke-width:0.5;stroke-linecap:round;stroke-linejoin:round;stroke-miterlimit:10;" d="
				M77.325,151.201c4.792,1.394,8.662,2.449,8.662,2.449"/>
			<path style="fill:none;stroke:#263238;stroke-width:0.5;stroke-linecap:round;stroke-linejoin:round;stroke-miterlimit:10;" d="
				M47.107,143.581c4.663,0.282,10.66,0.917,14.001,2.349c2.722,1.166,8.086,2.861,13.139,4.366"/>
			<path style="fill:none;stroke:#263238;stroke-width:0.5;stroke-linecap:round;stroke-linejoin:round;stroke-miterlimit:10;" d="
				M40.52,143.356c0,0,1.566,0,3.884,0.091"/>
			<path style="fill:none;stroke:#263238;stroke-width:0.5;stroke-linecap:round;stroke-linejoin:round;stroke-miterlimit:10;" d="
				M85.129,156.224c0,0-12.01,18.015-12.868,22.304c-0.858,4.289-0.858,7.721-0.858,7.721"/>
			<path style="fill:none;stroke:#263238;stroke-width:0.5;stroke-linecap:round;stroke-linejoin:round;stroke-miterlimit:10;" d="
				M90.467,161.891c2.313,2.985,5.087,6.967,6.242,10.203c2.145,6.005,3.002,12.01,3.002,12.01"/>
			<path style="fill:none;stroke:#263238;stroke-width:0.5;stroke-linecap:round;stroke-linejoin:round;stroke-miterlimit:10;" d="
				M86.844,157.511c0,0,0.952,1.058,2.281,2.691"/>
		</g>
		<g>
			<path style="fill:#C6FF00;" d="M74.103,137.616c0,0-2.216-8.97-0.841-17.35c1.375-8.38,18.983-25.776,18.983-25.776
				s-1.429,6.835-1.455,16.358c-0.026,9.524-4.75,34.566-4.75,34.566s2.813-11.525,8.933-16.975
				c6.119-5.45,25.345-13.975,26.39-14.725c1.045-0.751-4.27,7.29-7.745,13.482c-3.475,6.192-22.181,22.793-22.181,22.793
				s10.461-3.816,17.885-5.978c7.424-2.163,24.006,9.164,24.006,9.164s-12.669-1.464-20.539,1.547
				c-7.871,3.011-19.529,6.631-19.529,6.631s10.676,2.367,15.322,5.895c4.646,3.529,11.106,14.731,11.106,14.731
				s-10.141-7.504-16.725-8.584c-6.585-1.08-15.519-4.698-15.519-4.698s0.313,5.584,1.779,13.508
				c1.466,7.924,5.978,17.885,5.978,17.885s-11.534-6.503-14.688-11.631c-3.154-5.128-4.182-17.591-4.182-17.591
				s-5.235,0.063-8.96,5.906c-3.725,5.843-6.529,21.058-6.529,21.058s-6.166-12.999-5.934-20.03
				c0.232-7.031,14.213-19.183,14.213-19.183s-11.864,1.127-17.841,3.834c-5.977,2.707-11.194,10.15-11.194,10.15
				s0.008-16.903,5.779-22.103c5.771-5.2,22.183-2.2,22.183-2.2s-9.596-8.951-12.795-11.935c-3.199-2.984-8.059-12.695-8.059-12.695
				s5.333-0.661,14.616,2.706C71.091,129.745,74.103,137.616,74.103,137.616z"/>
			<path style="fill:none;stroke:#263238;stroke-width:0.5;stroke-linecap:round;stroke-linejoin:round;stroke-miterlimit:10;" d="
				M59.624,131.939c-0.961-0.827-1.943-1.633-2.943-2.408"/>
			<path style="fill:none;stroke:#263238;stroke-width:0.5;stroke-linecap:round;stroke-linejoin:round;stroke-miterlimit:10;" d="
				M82.893,115.227c-1.554,4.725-3.28,10.93-3.323,15.295c-0.08,7.978,0.261,24.631,0.261,24.631s-7.42-11.418-17.806-21.065"/>
			<path style="fill:none;stroke:#263238;stroke-width:0.5;stroke-linecap:round;stroke-linejoin:round;stroke-miterlimit:10;" d="
				M85.349,108.418c0,0-0.556,1.377-1.322,3.514"/>
			<path style="fill:none;stroke:#263238;stroke-width:0.5;stroke-linecap:round;stroke-linejoin:round;stroke-miterlimit:10;" d="
				M79.831,155.153c0,0-22.746-3.733-29.072-0.775c-6.325,2.958-8.201,10.641-8.201,10.641"/>
			<path style="fill:none;stroke:#263238;stroke-width:0.5;stroke-linecap:round;stroke-linejoin:round;stroke-miterlimit:10;" d="
				M111.446,149.232c4.696-0.26,5.818,0.691,5.818,0.691"/>
			<path style="fill:none;stroke:#263238;stroke-width:0.5;stroke-linecap:round;stroke-linejoin:round;stroke-miterlimit:10;" d="
				M59.669,188.112c0,0-1.662-6.727,3.903-14.42c5.565-7.693,16.813-16.297,16.813-16.297s19.911-6.3,27.784-7.778"/>
			<path style="fill:none;stroke:#263238;stroke-width:0.5;stroke-linecap:round;stroke-linejoin:round;stroke-miterlimit:10;" d="
				M85.992,150.353c-3.08,3.928-5.607,7.042-5.607,7.042"/>
			<path style="fill:none;stroke:#263238;stroke-width:0.5;stroke-linecap:round;stroke-linejoin:round;stroke-miterlimit:10;" d="
				M106.092,126.539c-3.623,2.949-8.124,6.963-10.003,10.074c-1.53,2.535-4.899,7.041-8.126,11.21"/>
			<path style="fill:none;stroke:#263238;stroke-width:0.5;stroke-linecap:round;stroke-linejoin:round;stroke-miterlimit:10;" d="
				M111.312,122.514c0,0-1.272,0.914-3.102,2.339"/>
			<path style="fill:none;stroke:#263238;stroke-width:0.5;stroke-linecap:round;stroke-linejoin:round;stroke-miterlimit:10;" d="
				M82.583,158.985c0,0,20.263,7.628,23.462,10.612c3.199,2.984,5.2,5.771,5.2,5.771"/>
			<path style="fill:none;stroke:#263238;stroke-width:0.5;stroke-linecap:round;stroke-linejoin:round;stroke-miterlimit:10;" d="
				M81.552,166.703c-0.138,3.774-0.068,8.627,0.88,11.928c1.76,6.129,4.566,11.507,4.566,11.507"/>
			<path style="fill:none;stroke:#263238;stroke-width:0.5;stroke-linecap:round;stroke-linejoin:round;stroke-miterlimit:10;" d="
				M81.94,161.031c0,0-0.156,1.415-0.283,3.517"/>
		</g>
	</g>
</g>
<g id="Device">
	<g>
		<path style="fill:#FFFFFF;stroke:#263238;stroke-linecap:round;stroke-linejoin:round;stroke-miterlimit:10;" d="M366.499,352.765
			H141.832c-6.443,0-11.667-5.223-11.667-11.667v-147c0-5.891,4.776-10.667,10.667-10.667h226.667
			c5.891,0,10.667,4.776,10.667,10.667v147C378.166,347.542,372.942,352.765,366.499,352.765z"/>
		<g>
			<rect x="209.828" y="200.099" style="fill:#263238;" width="13.962" height="9.171"/>
			<rect x="165.601" y="256.666" style="fill:#263238;" width="12.962" height="12.86"/>
			<rect x="222.759" y="211.474" style="fill:#263238;" width="13.061" height="12.86"/>
			<rect x="193.662" y="200.099" style="fill:#263238;" width="13.962" height="9.171"/>
			<rect x="238.025" y="211.474" style="fill:#263238;" width="13.061" height="12.86"/>
			<rect x="225.995" y="200.099" style="fill:#263238;" width="13.962" height="9.171"/>
			<rect x="146.166" y="241.602" style="fill:#263238;" width="24.564" height="12.86"/>
			<rect x="192.228" y="211.474" style="fill:#263238;" width="13.061" height="12.86"/>
			<rect x="146.166" y="256.666" style="fill:#263238;" width="17.231" height="12.86"/>
			<rect x="242.161" y="200.099" style="fill:#263238;" width="13.962" height="9.171"/>
			<rect x="161.697" y="211.474" style="fill:#263238;" width="13.061" height="12.86"/>
			<rect x="161.329" y="200.099" style="fill:#263238;" width="13.962" height="9.171"/>
			<rect x="177.496" y="200.099" style="fill:#263238;" width="13.962" height="9.171"/>
			<rect x="176.962" y="211.474" style="fill:#263238;" width="13.061" height="12.86"/>
			<rect x="207.494" y="211.474" style="fill:#263238;" width="13.061" height="12.86"/>
			<rect x="306.827" y="200.099" style="fill:#263238;" width="13.962" height="9.171"/>
			<rect x="322.993" y="200.099" style="fill:#263238;" width="13.962" height="9.171"/>
			<rect x="314.353" y="211.474" style="fill:#263238;" width="13.061" height="12.86"/>
			<rect x="329.619" y="211.474" style="fill:#263238;" width="13.061" height="12.86"/>
			<rect x="347.601" y="256.666" style="fill:#263238;" width="19.231" height="12.86"/>
			<rect x="339.159" y="200.099" style="fill:#263238;" width="13.962" height="9.171"/>
			<rect x="146.166" y="211.474" style="fill:#263238;" width="13.327" height="12.86"/>
			<rect x="258.328" y="200.099" style="fill:#263238;" width="13.962" height="9.171"/>
			<rect x="274.494" y="200.099" style="fill:#263238;" width="13.962" height="9.171"/>
			<rect x="268.556" y="211.474" style="fill:#263238;" width="13.061" height="12.86"/>
			<rect x="299.088" y="211.474" style="fill:#263238;" width="13.061" height="12.86"/>
			<rect x="253.291" y="211.474" style="fill:#263238;" width="13.061" height="12.86"/>
			<rect x="283.822" y="211.474" style="fill:#263238;" width="13.061" height="12.86"/>
			<rect x="290.66" y="200.099" style="fill:#263238;" width="13.962" height="9.171"/>
			<rect x="271.768" y="256.666" style="fill:#263238;" width="12.962" height="12.86"/>
			<rect x="339.768" y="241.602" style="fill:#263238;" width="12.962" height="12.86"/>
			<rect x="324.601" y="241.602" style="fill:#263238;" width="12.962" height="12.86"/>
			<rect x="332.435" y="256.666" style="fill:#263238;" width="12.962" height="12.86"/>
			<rect x="317.268" y="256.666" style="fill:#263238;" width="12.962" height="12.86"/>
			<rect x="286.935" y="256.666" style="fill:#263238;" width="12.962" height="12.86"/>
			<rect x="302.101" y="256.666" style="fill:#263238;" width="12.962" height="12.86"/>
			<rect x="309.435" y="241.602" style="fill:#263238;" width="12.962" height="12.86"/>
			<rect x="294.268" y="241.602" style="fill:#263238;" width="12.962" height="12.86"/>
			<rect x="355.326" y="200.099" style="fill:#263238;" width="11.507" height="9.171"/>
			<rect x="146.166" y="200.099" style="fill:#263238;" width="12.959" height="9.171"/>
			<rect x="146.166" y="271.73" style="fill:#263238;" width="220.667" height="13.368"/>
			<rect x="344.884" y="211.474" style="fill:#263238;" width="21.948" height="12.86"/>
			<rect x="354.935" y="241.602" style="fill:#263238;" width="11.898" height="12.86"/>
			<polygon style="fill:#263238;" points="351.268,239.303 349.063,239.303 349.063,226.538 336.101,226.538 336.101,239.303 
				333.897,239.303 333.897,226.538 320.935,226.538 320.935,239.303 318.73,239.303 318.73,226.538 305.768,226.538 
				305.768,239.303 303.564,239.303 303.564,226.538 290.601,226.538 290.601,239.303 288.397,239.303 288.397,226.538 
				275.435,226.538 275.435,239.303 273.23,239.303 273.23,226.538 260.268,226.538 260.268,239.303 258.064,239.303 
				258.064,226.538 245.101,226.538 245.101,239.303 242.897,239.303 242.897,226.538 229.935,226.538 229.935,239.303 
				227.73,239.303 227.73,226.538 214.768,226.538 214.768,239.303 212.563,239.303 212.563,226.538 199.601,226.538 
				199.601,239.303 197.397,239.303 197.397,226.538 184.435,226.538 184.435,239.303 182.23,239.303 182.23,226.538 
				169.268,226.538 169.268,239.303 167.063,239.303 167.063,226.538 146.166,226.538 146.166,239.397 366.832,239.397 
				366.832,226.538 351.268,226.538 			"/>
			<rect x="233.601" y="241.602" style="fill:#263238;" width="12.962" height="12.86"/>
			<rect x="279.101" y="241.602" style="fill:#263238;" width="12.962" height="12.86"/>
			<rect x="203.268" y="241.602" style="fill:#263238;" width="12.962" height="12.86"/>
			<rect x="211.101" y="256.666" style="fill:#263238;" width="12.962" height="12.86"/>
			<rect x="218.435" y="241.602" style="fill:#263238;" width="12.962" height="12.86"/>
			<rect x="188.101" y="241.602" style="fill:#263238;" width="12.962" height="12.86"/>
			<rect x="180.768" y="256.666" style="fill:#263238;" width="12.962" height="12.86"/>
			<rect x="195.935" y="256.666" style="fill:#263238;" width="12.962" height="12.86"/>
			<rect x="248.768" y="241.602" style="fill:#263238;" width="12.962" height="12.86"/>
			<rect x="256.601" y="256.666" style="fill:#263238;" width="12.962" height="12.86"/>
			<rect x="263.935" y="241.602" style="fill:#263238;" width="12.962" height="12.86"/>
			<rect x="226.268" y="256.666" style="fill:#263238;" width="12.962" height="12.86"/>
			<rect x="241.435" y="256.666" style="fill:#263238;" width="12.962" height="12.86"/>
			<rect x="172.935" y="241.602" style="fill:#263238;" width="12.962" height="12.86"/>
		</g>
		<path style="fill:#263238;stroke:#263238;stroke-linecap:round;stroke-linejoin:round;stroke-miterlimit:10;" d="M392.329,91.432
			H114.669c-5.836,0-10.082,5.537-8.569,11.174l20.301,75.589c1.041,3.876,4.555,6.571,8.569,6.571h28.336v5.204h181.72v-5.204
			h27.003c4.014,0,7.528-2.695,8.569-6.571l20.301-75.589C402.412,96.969,398.165,91.432,392.329,91.432z"/>
		<polygon style="fill:#C6FF00;stroke:#263238;stroke-linecap:round;stroke-linejoin:round;stroke-miterlimit:10;" points="
			360.928,178.099 146.07,178.099 124.585,100.765 382.413,100.765 		"/>
		<g>
			<g>
				<path style="fill:#263238;" d="M160.331,144.161v0.999h-3.795v-0.999H160.331z"/>
				<path style="fill:#263238;" d="M165.048,144.161v0.999h-3.795v-0.999H165.048z"/>
				<path style="fill:#263238;" d="M169.765,144.161v0.999h-3.796v-0.999H169.765z"/>
				<path style="fill:#263238;" d="M174.482,144.161v0.999h-3.796v-0.999H174.482z"/>
				<path style="fill:#263238;" d="M179.199,144.161v0.999h-3.795v-0.999H179.199z"/>
				<path style="fill:#263238;" d="M183.916,144.161v0.999h-3.795v-0.999H183.916z"/>
				<path style="fill:#263238;" d="M188.633,144.161v0.999h-3.795v-0.999H188.633z"/>
				<path style="fill:#263238;" d="M193.304,149.431l-4.179-11.14h1.045l4.179,11.14H193.304z"/>
			</g>
			<g>
				<path style="fill:#263238;" d="M156.514,127.938v0.998h-3.795v-0.998H156.514z"/>
				<path style="fill:#263238;" d="M161.231,127.938v0.998h-3.795v-0.998H161.231z"/>
				<path style="fill:#263238;" d="M165.948,127.938v0.998h-3.795v-0.998H165.948z"/>
				<path style="fill:#263238;" d="M170.665,127.938v0.998h-3.796v-0.998H170.665z"/>
				<path style="fill:#263238;" d="M175.382,127.938v0.998h-3.795v-0.998H175.382z"/>
				<path style="fill:#263238;" d="M183.356,127.938v0.998h-3.795v-0.998H183.356z"/>
				<path style="fill:#263238;" d="M188.074,127.938v0.998h-3.795v-0.998H188.074z"/>
				<path style="fill:#263238;" d="M192.79,127.938v0.998h-3.795v-0.998H192.79z"/>
				<path style="fill:#263238;" d="M197.508,127.938v0.998h-3.795v-0.998H197.508z"/>
				<path style="fill:#263238;" d="M202.225,127.938v0.998h-3.795v-0.998H202.225z"/>
				<path style="fill:#263238;" d="M206.942,127.938v0.998h-3.795v-0.998H206.942z"/>
				<path style="fill:#263238;" d="M211.659,127.938v0.998h-3.795v-0.998H211.659z"/>
				<path style="fill:#263238;" d="M219.633,127.938v0.998h-3.795v-0.998H219.633z"/>
				<path style="fill:#263238;" d="M224.35,127.938v0.998h-3.795v-0.998H224.35z"/>
				<path style="fill:#263238;" d="M229.067,127.938v0.998h-3.795v-0.998H229.067z"/>
				<path style="fill:#263238;" d="M237.04,127.938v0.998h-3.795v-0.998H237.04z"/>
				<path style="fill:#263238;" d="M241.758,127.938v0.998h-3.795v-0.998H241.758z"/>
				<path style="fill:#263238;" d="M246.475,127.938v0.998h-3.795v-0.998H246.475z"/>
				<path style="fill:#263238;" d="M264.221,127.938v0.998h-3.795v-0.998H264.221z"/>
				<path style="fill:#263238;" d="M268.938,127.938v0.998h-3.795v-0.998H268.938z"/>
				<path style="fill:#263238;" d="M273.655,127.938v0.998h-3.795v-0.998H273.655z"/>
				<path style="fill:#263238;" d="M278.372,127.938v0.998h-3.795v-0.998H278.372z"/>
				<path style="fill:#263238;" d="M283.089,127.938v0.998h-3.795v-0.998H283.089z"/>
				<path style="fill:#263238;" d="M291.064,127.938v0.998h-3.795v-0.998H291.064z"/>
				<path style="fill:#263238;" d="M295.78,127.938v0.998h-3.795v-0.998H295.78z"/>
				<path style="fill:#263238;" d="M300.497,127.938v0.998h-3.795v-0.998H300.497z"/>
				<path style="fill:#263238;" d="M308.472,127.938v0.998h-3.795v-0.998H308.472z"/>
				<path style="fill:#263238;" d="M316.446,127.938v0.998h-3.795v-0.998H316.446z"/>
			</g>
		</g>
	</g>
</g>
<g id="Notebook">
	<g>
		<g>
			<polygon style="fill:#FFFFFF;stroke:#263238;stroke-linecap:round;stroke-linejoin:round;stroke-miterlimit:10;" points="
				379.685,292.285 368.986,333.569 379.108,336.536 			"/>
			<path style="fill:#FFFFFF;stroke:#263238;stroke-miterlimit:10;" d="M384.487,248.663c0,0-1.777-2.211-1.226-6.282
				c0.552-4.071,5.462-5,5.462-5s1.067-0.812,5.011,0.679c3.944,1.491,34.32,5.609,53.736,8.241
				c19.416,2.632,25.706,0.933,25.44,7.595s-17.312,66.539-17.566,68.418C455.089,324.193,384.487,248.663,384.487,248.663z"/>
			
				<rect x="377.513" y="253.755" transform="matrix(0.9909 0.1343 -0.1343 0.9909 44.482 -53.5027)" style="fill:#FFFFFF;stroke:#263238;stroke-linecap:round;stroke-linejoin:round;stroke-miterlimit:10;" width="82.437" height="98.269"/>
			
				<line style="fill:none;stroke:#263238;stroke-width:0.5;stroke-linecap:round;stroke-linejoin:round;stroke-miterlimit:10;" x1="450.988" y1="279.165" x2="455.743" y2="279.809"/>
			
				<line style="fill:none;stroke:#263238;stroke-width:0.5;stroke-linecap:round;stroke-linejoin:round;stroke-miterlimit:10;" x1="421.237" y1="275.132" x2="447.23" y2="278.655"/>
			
				<line style="fill:none;stroke:#263238;stroke-width:0.5;stroke-linecap:round;stroke-linejoin:round;stroke-miterlimit:10;" x1="389.742" y1="270.862" x2="417.479" y2="274.622"/>
			
				<line style="fill:none;stroke:#263238;stroke-width:0.5;stroke-linecap:round;stroke-linejoin:round;stroke-miterlimit:10;" x1="443.551" y1="286.971" x2="454.569" y2="288.465"/>
			
				<line style="fill:none;stroke:#263238;stroke-width:0.5;stroke-linecap:round;stroke-linejoin:round;stroke-miterlimit:10;" x1="388.568" y1="279.518" x2="432.277" y2="285.443"/>
			
				<line style="fill:none;stroke:#263238;stroke-width:0.5;stroke-linecap:round;stroke-linejoin:round;stroke-miterlimit:10;" x1="410.748" y1="291.34" x2="453.396" y2="297.121"/>
			
				<line style="fill:none;stroke:#263238;stroke-width:0.5;stroke-linecap:round;stroke-linejoin:round;stroke-miterlimit:10;" x1="387.395" y1="288.174" x2="406.364" y2="290.745"/>
			
				<line style="fill:none;stroke:#263238;stroke-width:0.5;stroke-linecap:round;stroke-linejoin:round;stroke-miterlimit:10;" x1="424.92" y1="302.076" x2="452.223" y2="305.777"/>
			
				<line style="fill:none;stroke:#263238;stroke-width:0.5;stroke-linecap:round;stroke-linejoin:round;stroke-miterlimit:10;" x1="401.746" y1="298.934" x2="421.788" y2="301.651"/>
			
				<line style="fill:none;stroke:#263238;stroke-width:0.5;stroke-linecap:round;stroke-linejoin:round;stroke-miterlimit:10;" x1="386.221" y1="296.83" x2="398.301" y2="298.467"/>
			
				<line style="fill:none;stroke:#263238;stroke-width:0.5;stroke-linecap:round;stroke-linejoin:round;stroke-miterlimit:10;" x1="441.284" y1="313.109" x2="451.049" y2="314.433"/>
			
				<line style="fill:none;stroke:#263238;stroke-width:0.5;stroke-linecap:round;stroke-linejoin:round;stroke-miterlimit:10;" x1="385.048" y1="305.486" x2="434.707" y2="312.217"/>
			
				<line style="fill:none;stroke:#263238;stroke-width:0.5;stroke-linecap:round;stroke-linejoin:round;stroke-miterlimit:10;" x1="422.26" y1="319.345" x2="449.876" y2="323.089"/>
			
				<line style="fill:none;stroke:#263238;stroke-width:0.5;stroke-linecap:round;stroke-linejoin:round;stroke-miterlimit:10;" x1="383.875" y1="314.142" x2="417.563" y2="318.708"/>
			
				<line style="fill:none;stroke:#263238;stroke-width:0.5;stroke-linecap:round;stroke-linejoin:round;stroke-miterlimit:10;" x1="430.795" y1="329.317" x2="448.702" y2="331.745"/>
			
				<line style="fill:none;stroke:#263238;stroke-width:0.5;stroke-linecap:round;stroke-linejoin:round;stroke-miterlimit:10;" x1="394.468" y1="324.392" x2="426.41" y2="328.723"/>
			
				<line style="fill:none;stroke:#263238;stroke-width:0.5;stroke-linecap:round;stroke-linejoin:round;stroke-miterlimit:10;" x1="382.701" y1="322.797" x2="390.71" y2="323.883"/>
			<path style="fill:none;stroke:#263238;stroke-linecap:round;stroke-linejoin:round;stroke-miterlimit:10;" d="M466.177,259.737
				c0,0,1.404-13.58,6.404-8.118"/>
		</g>
		<g>
			<polygon style="fill:#FFFFFF;stroke:#263238;stroke-linecap:round;stroke-linejoin:round;stroke-miterlimit:10;" points="
				438.477,364.354 438.395,372.978 433.362,365.875 413.173,297.966 418.287,296.445 			"/>
			
				<rect x="424.37" y="295.737" transform="matrix(0.9585 -0.285 0.285 0.9585 -76.7105 135.0682)" style="fill:#C6FF00;stroke:#263238;stroke-width:0.5;stroke-linecap:round;stroke-linejoin:round;stroke-miterlimit:10;" width="2.91" height="70.847"/>
			<polygon style="fill:none;stroke:#263238;stroke-linecap:round;stroke-linejoin:round;stroke-miterlimit:10;" points="
				438.477,364.37 433.371,365.888 438.395,372.978 			"/>
			<polygon style="fill:#263238;stroke:#263238;stroke-linecap:round;stroke-linejoin:round;stroke-miterlimit:10;" points="
				435.883,369.433 438.395,372.978 438.436,368.674 			"/>
			<path style="fill:#FFFFFF;stroke:#263238;stroke-linecap:round;stroke-linejoin:round;stroke-miterlimit:10;" d="M413.47,289.602
				L413.47,289.602c-1.412,0.42-2.217,1.905-1.797,3.318l1.5,5.046l5.115-1.521l-1.5-5.046
				C416.367,289.987,414.882,289.182,413.47,289.602z"/>
			<path style="fill:#263238;stroke:#263238;stroke-linecap:round;stroke-linejoin:round;stroke-miterlimit:10;" d="M413.47,289.602
				L413.47,289.602c-1.412,0.42-2.217,1.905-1.797,3.318l0.718,2.414l5.115-1.521l-0.718-2.414
				C416.367,289.987,414.882,289.182,413.47,289.602z"/>
		</g>
	</g>
</g>
<g id="Character">
	<g>
		<g>
			<g>
				<path style="fill:none;stroke:#FFFFFF;stroke-linecap:round;stroke-linejoin:round;stroke-miterlimit:10;" d="M161.651,249.488
					c-0.638,0.902-1.275,1.846-1.904,2.828"/>
				<path style="fill:none;stroke:#FFFFFF;stroke-linecap:round;stroke-linejoin:round;stroke-miterlimit:10;" d="M172.11,237.453
					c0,0-3.536,3.128-7.708,8.37"/>
				<path style="fill:none;stroke:#FFFFFF;stroke-linecap:round;stroke-linejoin:round;stroke-miterlimit:10;" d="M160.762,242.755
					c0,0-5.03,7.089-7.415,12.042"/>
			</g>
			<g>
				<path style="fill:none;stroke:#FFFFFF;stroke-linecap:round;stroke-linejoin:round;stroke-miterlimit:10;" d="M231.294,264.747
					c-0.637,0.902-1.275,1.846-1.904,2.828"/>
				<path style="fill:none;stroke:#FFFFFF;stroke-linecap:round;stroke-linejoin:round;stroke-miterlimit:10;" d="M241.753,252.712
					c0,0-3.536,3.128-7.708,8.37"/>
				<path style="fill:none;stroke:#FFFFFF;stroke-linecap:round;stroke-linejoin:round;stroke-miterlimit:10;" d="M230.405,258.014
					c0,0-5.03,7.089-7.415,12.042"/>
			</g>
			<g>
				<path style="fill:none;stroke:#FFFFFF;stroke-linecap:round;stroke-linejoin:round;stroke-miterlimit:10;" d="M331.109,240.013
					c-0.912-0.623-1.866-1.246-2.858-1.86"/>
				<path style="fill:none;stroke:#FFFFFF;stroke-linecap:round;stroke-linejoin:round;stroke-miterlimit:10;" d="M343.306,250.284
					c0,0-3.183-3.486-8.489-7.577"/>
				<path style="fill:none;stroke:#FFFFFF;stroke-linecap:round;stroke-linejoin:round;stroke-miterlimit:10;" d="M337.827,239.02
					c0,0-7.167-4.919-12.156-7.227"/>
			</g>
		</g>
		<g>
			<g>
				<path style="fill:none;stroke:#263238;stroke-linecap:round;stroke-linejoin:round;stroke-miterlimit:10;" d="M228.246,301.993
					c-0.513,3.761-1.297,8.97-2.081,12.105"/>
				<path style="fill:none;stroke:#263238;stroke-linecap:round;stroke-linejoin:round;stroke-miterlimit:10;" d="M228.832,297.432
					c0,0-0.083,0.709-0.229,1.856"/>
				<path style="fill:none;stroke:#263238;stroke-linecap:round;stroke-linejoin:round;stroke-miterlimit:10;" d="M231.499,308.099
					c0,0-2,6.667-4,10.667"/>
			</g>
			<g>
				<path style="fill:none;stroke:#263238;stroke-linecap:round;stroke-linejoin:round;stroke-miterlimit:10;" d="M281.499,313.432
					c0,0,0.667,8.667,5.333,13.333"/>
				<path style="fill:none;stroke:#263238;stroke-linecap:round;stroke-linejoin:round;stroke-miterlimit:10;" d="M280.832,322.099
					c0,0,2,6,6,8.667"/>
			</g>
		</g>
		<g>
			<path style="fill:#C6FF00;" d="M144.961,368.439c0,0,4.439-3.571,4.439-34.256s5.114-53.11,11.409-62.945
				c6.294-9.835,12.196-13.769,14.949-13.769s0.787,3.541-3.147,8.655c-3.934,5.114-7.475,7.868-9.048,14.163
				c-1.574,6.294-1.574,14.163,0.393,13.376c1.967-0.787,5.114-16.523,7.868-22.424c2.754-5.901,9.442-13.376,13.376-16.916
				c3.934-3.541,12.589-14.163,16.523-11.409c3.934,2.754,1.574,6.688-0.787,8.262c-2.36,1.574-11.802,11.015-16.13,16.917
				c-4.327,5.901-7.081,20.851-4.721,21.244c2.36,0.393,9.442-21.637,13.376-26.358c3.934-4.721,19.67-17.703,23.211-18.097
				c3.541-0.393,3.934,5.114,0.787,7.868c-3.147,2.754-13.769,14.556-17.31,21.637c-3.541,7.081-5.114,20.064-1.967,16.917
				c3.147-3.147,8.262-16.13,12.589-20.457c4.327-4.327,17.31-18.097,20.457-16.523c3.147,1.574,2.361,5.508-0.393,8.261
				c-2.754,2.754-13.376,17.703-16.13,25.571c-2.754,7.868-5.901,29.899-4.327,26.752c1.574-3.147,6.688-19.277,9.442-25.965
				c2.754-6.688,8.262-9.835,9.048-6.688c0.787,3.147-0.787,4.721-2.754,11.802c-1.967,7.081-1.967,25.965-7.868,36.587
				c-5.901,10.622-29.374,33.214-32.521,41.082c-3.147,7.868-8.111,15.599-8.111,15.599"/>
			<path style="fill:#C6FF00;" d="M363.55,371.1c0,0-4.563-6.232-4.563-36.917s-5.114-53.11-11.409-62.945
				c-6.294-9.835-12.196-13.769-14.949-13.769c-2.754,0-0.787,3.541,3.147,8.655c3.934,5.114,7.475,7.868,9.048,14.163
				c1.574,6.294,1.574,14.163-0.393,13.376c-1.967-0.787-5.114-16.523-7.868-22.424c-2.754-5.901-9.442-13.376-13.376-16.916
				c-3.934-3.541-12.589-14.163-16.523-11.409c-3.934,2.754-1.574,6.688,0.787,8.262c2.36,1.574,11.802,11.015,16.13,16.917
				c4.328,5.901,7.081,20.851,4.721,21.244c-2.36,0.393-9.442-21.637-13.376-26.358c-3.934-4.721-19.67-17.703-23.211-18.097
				c-3.541-0.393-3.934,5.114-0.787,7.868c3.147,2.754,13.769,14.556,17.31,21.637c3.541,7.081,5.114,20.064,1.967,16.917
				c-3.147-3.147-8.262-16.13-12.589-20.457c-4.328-4.327-17.31-18.097-20.457-16.523c-3.147,1.574-2.36,5.508,0.393,8.261
				c2.754,2.754,13.376,17.703,16.13,25.571c2.754,7.868,5.901,29.899,4.327,26.752c-1.574-3.147-6.688-19.277-9.442-25.965
				c-2.754-6.688-8.262-9.835-9.048-6.688c-0.787,3.147,0.787,4.721,2.754,11.802c1.967,7.081,1.967,25.965,7.868,36.587
				c5.901,10.622,28.719,31.229,31.866,39.097c3.147,7.868,8.891,20.244,8.891,20.244"/>
			<path style="fill:#FFFFFF;stroke:#263238;stroke-linecap:round;stroke-linejoin:round;stroke-miterlimit:10;" d="
				M143.499,376.034c0,0,5.901-19.277,5.901-49.963s5.114-53.11,11.409-62.945c6.294-9.835,12.196-13.769,14.949-13.769
				s0.787,3.541-3.147,8.655c-3.934,5.114-7.475,7.868-9.048,14.163c-1.574,6.294-1.574,14.163,0.393,13.376
				c1.967-0.787,5.114-16.523,7.868-22.424c2.754-5.901,9.442-13.376,13.376-16.916c3.934-3.541,12.589-14.163,16.523-11.409
				c3.934,2.754,1.574,6.688-0.787,8.261c-2.36,1.574-11.802,11.015-16.13,16.917c-4.327,5.901-7.081,20.85-4.721,21.244
				c2.36,0.393,9.442-21.637,13.376-26.358c3.934-4.721,19.67-17.703,23.211-18.097c3.541-0.393,3.934,5.114,0.787,7.868
				c-3.147,2.754-13.769,14.556-17.31,21.637c-3.541,7.081-5.114,20.064-1.967,16.917c3.147-3.147,8.262-16.13,12.589-20.457
				c4.327-4.327,17.31-18.097,20.457-16.523c3.147,1.574,2.361,5.508-0.393,8.262c-2.754,2.754-13.376,17.703-16.13,25.571
				c-2.754,7.868-5.901,29.899-4.327,26.752c1.574-3.147,6.688-19.277,9.442-25.965c2.754-6.688,8.262-9.835,9.048-6.688
				c0.787,3.147-0.787,4.721-2.754,11.802c-1.967,7.081-1.967,25.965-7.868,36.587c-5.901,10.622-28.719,39.341-31.866,47.209
				c-3.147,7.868-10.229,25.178-10.229,25.178"/>
			<path style="fill:#FFFFFF;stroke:#263238;stroke-linecap:round;stroke-linejoin:round;stroke-miterlimit:10;" d="
				M364.888,376.034c0,0-5.901-19.277-5.901-49.963s-5.114-53.11-11.409-62.945c-6.294-9.835-12.196-13.769-14.949-13.769
				c-2.754,0-0.787,3.541,3.147,8.655c3.934,5.114,7.475,7.868,9.048,14.163c1.574,6.294,1.574,14.163-0.393,13.376
				c-1.967-0.787-5.114-16.523-7.868-22.424c-2.754-5.901-9.442-13.376-13.376-16.916c-3.934-3.541-12.589-14.163-16.523-11.409
				c-3.934,2.754-1.574,6.688,0.787,8.261c2.36,1.574,11.802,11.015,16.13,16.917c4.328,5.901,7.081,20.85,4.721,21.244
				c-2.36,0.393-9.442-21.637-13.376-26.358c-3.934-4.721-19.67-17.703-23.211-18.097c-3.541-0.393-3.934,5.114-0.787,7.868
				c3.147,2.754,13.769,14.556,17.31,21.637c3.541,7.081,5.114,20.064,1.967,16.917c-3.147-3.147-8.262-16.13-12.589-20.457
				c-4.328-4.327-17.31-18.097-20.457-16.523c-3.147,1.574-2.36,5.508,0.393,8.262c2.754,2.754,13.376,17.703,16.13,25.571
				c2.754,7.868,5.901,29.899,4.327,26.752c-1.574-3.147-6.688-19.277-9.442-25.965c-2.754-6.688-8.262-9.835-9.048-6.688
				c-0.787,3.147,0.787,4.721,2.754,11.802c1.967,7.081,1.967,25.965,7.868,36.587c5.901,10.622,28.719,39.341,31.866,47.209
				c3.147,7.868,10.229,25.178,10.229,25.178"/>
			<path style="fill:#263238;stroke:#263238;stroke-linecap:round;stroke-linejoin:round;stroke-miterlimit:10;" d="M118.596,436
				h59.95c0.785-2.996,1.759-6.355,2.975-10.003c4.714-14.142,20.034-31.819,20.034-31.819s-14.731-14.142-37.711-21.213
				C140.864,365.895,124,368,124,368s5.171,18.448,1,39C122.045,421.564,119.986,430.774,118.596,436z"/>
			<path style="fill:#263238;stroke:#263238;stroke-linecap:round;stroke-linejoin:round;stroke-miterlimit:10;" d="M329.397,436
				h62.345c-1.993-5.182-6.318-16.427-10.646-27.68c-5.892-15.32-3.535-35.944-5.892-35.944c-2.357,0-28.873-1.768-41.836,2.357
				c-12.963,4.125-27.694,15.909-27.694,15.909s10.017,11.196,17.088,25.337C325.937,422.334,328.041,429.752,329.397,436z"/>
			<path style="fill:#FFFFFF;" d="M156.076,380.203c-0.426-1.705-6.822,0.853-6.822,0.853s2.132-8.101-1.279-8.101
				s-3.837,5.969-3.837,5.969s-6.395-2.558-6.395,1.279c0,3.837,4.264,3.837,4.264,3.837s-5.116,6.395-1.279,7.674
				c3.837,1.279,6.395-3.411,6.395-3.411s2.558,4.263,5.969,2.558c3.411-1.706,0.853-5.543,0.853-5.543
				S156.502,381.909,156.076,380.203z M147.549,386.598c-1.177,0-2.132-0.764-2.132-1.705c0-0.942,0.954-1.705,2.132-1.705
				c1.177,0,2.132,0.764,2.132,1.705C149.68,385.835,148.726,386.598,147.549,386.598z M165.455,427.954
				c-0.426-1.705-6.822,0.853-6.822,0.853s2.132-8.101-1.279-8.101c-3.411,0-3.837,5.969-3.837,5.969s-6.395-2.558-6.395,1.279
				c0,3.837,4.264,3.837,4.264,3.837s-5.116,6.395-1.279,7.674c3.837,1.279,6.395-3.411,6.395-3.411s2.558,4.263,5.969,2.558
				c3.411-1.706,0.853-5.543,0.853-5.543S165.882,429.66,165.455,427.954z M156.928,434.349c-1.177,0-2.132-0.764-2.132-1.705
				c0-0.942,0.954-1.705,2.132-1.705c1.177,0,2.132,0.763,2.132,1.705C159.06,433.586,158.106,434.349,156.928,434.349z
				 M127.937,434.349c-0.426-1.705-6.822,0.853-6.822,0.853s2.132-8.101-1.279-8.101s-3.837,5.969-3.837,5.969
				s-6.395-2.558-6.395,1.279s4.263,3.837,4.263,3.837s-5.116,6.395-1.279,7.674c3.837,1.279,6.395-3.411,6.395-3.411
				s2.558,4.263,5.969,2.558c3.411-1.705,0.853-5.542,0.853-5.542S128.363,436.055,127.937,434.349z M119.41,440.745
				c-1.177,0-2.132-0.763-2.132-1.705c0-0.942,0.954-1.705,2.132-1.705c1.177,0,2.132,0.763,2.132,1.705
				C121.541,439.981,120.587,440.745,119.41,440.745z M174.409,401.094c0,0,1.279,0,4.69,0s5.543,3.837,5.543,3.837
				C177.393,407.063,174.409,401.094,174.409,401.094z M169.719,434.349c0,0,1.279,0,4.69,0s5.543,3.837,5.543,3.837
				C172.703,440.318,169.719,434.349,169.719,434.349z M128.789,427.954c0,0,1.279,0,4.69,0c3.411,0,5.543,3.837,5.543,3.837
				C131.774,433.923,128.789,427.954,128.789,427.954z M151.465,397.862c0,0,0.745,1.04,2.733,3.811
				c1.987,2.772,0.111,6.74,0.111,6.74C148.353,403.765,151.465,397.862,151.465,397.862z M127.948,410.645
				c0,0,0.585-1.137,2.147-4.17c1.561-3.033,5.949-3.171,5.949-3.171C134.621,410.724,127.948,410.645,127.948,410.645z"/>
			<path style="fill:#FFFFFF;" d="M356.886,388.304c-0.426-1.705-6.822,0.853-6.822,0.853s2.132-8.101-1.279-8.101
				c-3.411,0-3.837,5.969-3.837,5.969s-6.395-2.558-6.395,1.279c0,3.837,4.263,3.837,4.263,3.837s-5.116,6.395-1.279,7.674
				c3.837,1.279,6.395-3.411,6.395-3.411s2.558,4.264,5.969,2.558c3.411-1.706,0.853-5.543,0.853-5.543
				S357.312,390.009,356.886,388.304z M348.359,394.699c-1.177,0-2.132-0.764-2.132-1.705c0-0.942,0.954-1.705,2.132-1.705
				c1.177,0,2.132,0.763,2.132,1.705C350.49,393.935,349.536,394.699,348.359,394.699z M376.924,421.559
				c-0.426-1.705-6.822,0.853-6.822,0.853s2.132-8.101-1.279-8.101s-3.837,5.969-3.837,5.969s-6.395-2.558-6.395,1.279
				s4.263,3.837,4.263,3.837s-5.116,6.395-1.279,7.674c3.837,1.279,6.395-3.411,6.395-3.411s2.558,4.264,5.969,2.558
				c3.411-1.705,0.853-5.542,0.853-5.542S377.35,423.264,376.924,421.559z M368.397,427.954c-1.177,0-2.132-0.764-2.132-1.705
				c0-0.942,0.954-1.706,2.132-1.706c1.177,0,2.132,0.764,2.132,1.706C370.529,427.191,369.574,427.954,368.397,427.954z
				 M355.607,434.349c-0.426-1.705-6.822,0.853-6.822,0.853s2.132-8.101-1.279-8.101s-3.837,5.969-3.837,5.969
				s-6.395-2.558-6.395,1.279c0,3.837,4.264,3.837,4.264,3.837s-5.116,6.395-1.279,7.674c3.837,1.279,6.395-3.411,6.395-3.411
				s2.558,4.263,5.969,2.558c3.411-1.705,0.853-5.543,0.853-5.543S356.033,436.055,355.607,434.349z M347.08,440.745
				c-1.177,0-2.132-0.763-2.132-1.705c0-0.942,0.954-1.705,2.132-1.705c1.177,0,2.132,0.763,2.132,1.705
				C349.211,439.981,348.257,440.745,347.08,440.745z M375.219,409.195c0,0,1.279,0,4.69,0c3.411,0,5.542,3.837,5.542,3.837
				C378.203,415.164,375.219,409.195,375.219,409.195z M324.91,433.497c0,0,1.279,0,4.69,0c3.411,0,5.543,3.837,5.543,3.837
				C327.894,439.466,324.91,433.497,324.91,433.497z M352.275,405.962c0,0,0.745,1.039,2.733,3.811
				c1.987,2.772,0.111,6.74,0.111,6.74C349.163,411.866,352.275,405.962,352.275,405.962z M379.988,429.838
				c0,0,0.745,1.039,2.733,3.811c1.987,2.772,0.111,6.74,0.111,6.74C376.876,435.741,379.988,429.838,379.988,429.838z
				 M328.758,418.746c0,0,0.586-1.137,2.147-4.17c1.561-3.033,5.949-3.171,5.949-3.171
				C335.431,418.825,328.758,418.746,328.758,418.746z"/>
		</g>
	</g>
</g>
</svg>
